<svg width="6667" height="4667" viewBox="0 0 6667 4667" fill="none" xmlns="http://www.w3.org/2000/svg">
<g clip-path="url(#clip0_1_2)">
<path d="M6666.67 4666.67H0V0H6666.67V4666.67Z" fill="#131919"/>
<path d="M2425.23 3412.95H4241.44" stroke="#DFBD62" stroke-width="13.3333" stroke-miterlimit="10"/>
<path d="M2441.45 2819.83V1176.81H2521.45V2600.47L3740.81 1151.05L3802.03 1202.56L2441.45 2819.83Z" fill="#DFBC61"/>
<path d="M4225.21 2960.81L3152.4 2100.68L3202.44 2038.27L4145.21 2794.13V1176.81H4225.21V2960.81Z" fill="#DFBC61"/>
<path d="M2230.93 3293H2251.42V3253.18L2261.67 3241.09L2293.59 3293H2317.78L2276.29 3227.98L2315.26 3179.77H2289.9L2260.16 3219.58C2257.47 3223.45 2254.62 3227.48 2251.93 3231.85H2251.42V3179.77H2230.93V3293ZM2495 3293L2508.1 3239.74C2511.46 3226.81 2513.65 3215.89 2515.49 3203.79H2515.83C2517.34 3216.06 2519.36 3226.81 2522.21 3239.74L2533.97 3293H2555.98L2586.56 3179.77H2565.56L2553.8 3230.84C2550.77 3244.78 2548.09 3257.72 2546.07 3270.15H2545.73C2544.05 3257.89 2541.53 3245.29 2538.85 3231.85L2527.59 3179.77H2505.92L2493.65 3231.01C2490.46 3245.29 2487.27 3258.73 2485.42 3270.66H2485.09C2483.24 3259.4 2480.55 3244.95 2477.69 3231.18L2466.94 3179.77H2444.93L2472.65 3293H2495ZM2714.51 3241.09V3255.37H2757.35V3241.09H2714.51ZM2893.67 3287.62C2899.88 3291.49 2912.32 3294.85 2924.41 3294.85C2953.48 3294.85 2967.25 3279.06 2967.25 3260.74C2967.25 3244.45 2957.84 3234.54 2938.19 3227.14C2923.07 3221.26 2916.52 3217.23 2916.52 3208.5C2916.52 3201.78 2922.06 3194.89 2935.16 3194.89C2945.75 3194.89 2953.64 3198.08 2957.84 3200.26L2962.72 3183.63C2956.84 3180.61 2947.93 3177.92 2935.67 3177.92C2910.97 3177.92 2895.52 3191.86 2895.52 3210.51C2895.52 3226.81 2907.44 3236.72 2926.26 3243.44C2940.54 3248.65 2946.25 3253.69 2946.25 3262.26C2946.25 3271.5 2938.86 3277.71 2925.76 3277.71C2915.17 3277.71 2904.92 3274.35 2898.37 3270.49L2893.67 3287.62ZM3131.82 3293H3152.48V3197.07H3185.07V3179.77H3099.56V3197.07H3131.82V3293ZM3366.02 3177.75C3334.1 3177.75 3312.09 3202.28 3312.09 3237.22C3312.09 3270.32 3332.25 3294.85 3364.34 3294.85C3395.42 3294.85 3418.44 3273.18 3418.44 3235.21C3418.44 3202.78 3398.95 3177.75 3366.02 3177.75ZM3365.35 3194.38C3386.01 3194.38 3396.6 3214.54 3396.6 3235.88C3396.6 3259.57 3385.34 3278.22 3365.35 3278.22C3345.53 3278.22 3333.93 3259.9 3333.93 3236.72C3333.93 3213.37 3344.85 3194.38 3365.35 3194.38ZM3560.58 3293H3581.08V3250.16C3583.93 3250.83 3587.29 3251 3591.16 3251C3605.77 3251 3618.54 3246.97 3626.94 3238.74C3633.16 3232.69 3636.52 3223.95 3636.52 3213.2C3636.52 3202.62 3632.15 3193.71 3625.43 3188.17C3618.21 3182.12 3607.29 3178.93 3592.17 3178.93C3578.39 3178.93 3568.14 3179.94 3560.58 3181.28V3293ZM3581.08 3195.9C3583.26 3195.39 3587.29 3194.89 3593.01 3194.89C3607.29 3194.89 3616.02 3201.44 3616.02 3214.04C3616.02 3227.14 3606.61 3234.87 3591.16 3234.87C3586.96 3234.87 3583.77 3234.7 3581.08 3233.86V3195.9ZM3937.85 3293H3958.34V3253.18L3968.59 3241.09L4000.51 3293H4024.7L3983.21 3227.98L4022.18 3179.77H3996.82L3967.08 3219.58C3964.39 3223.45 3961.54 3227.48 3958.85 3231.85H3958.34V3179.77H3937.85V3293ZM4159.95 3293H4180.61V3244.78H4222.28V3227.98H4180.61V3196.74H4225.47V3179.77H4159.95V3293ZM4391.42 3293H4412.08V3197.07H4444.67V3179.77H4359.16V3197.07H4391.42V3293Z" fill="#DFBC61"/>
</g>
<defs>
<clipPath id="clip0_1_2">
<rect width="6666.67" height="4666.67" fill="white"/>
</clipPath>
</defs>
</svg>
